<svg width="35" height="32" viewBox="0 0 35 32" fill="none" xmlns="http://www.w3.org/2000/svg">
<path d="M33.9594 16.0436H31.2563C29.265 16.0436 27.6521 17.5569 27.6521 19.4253C27.6521 21.2937 29.265 22.807 31.2563 22.807H33.9594C34.4567 22.807 34.8604 23.1857 34.8604 23.6524V27.8794C34.8604 29.7478 33.2475 31.2611 31.2563 31.2611H24.949C24.4516 31.2611 24.048 30.8824 24.048 30.4157V27.8794C24.048 26.0111 22.4351 24.4978 20.4438 24.4978C18.4526 24.4978 16.8397 26.0111 16.8397 27.8794V30.4157C16.8397 30.8824 16.436 31.2611 15.9387 31.2611H11.4335C9.44222 31.2611 7.82937 29.7478 7.82937 27.8794V23.6524C7.82937 23.1857 7.4257 22.807 6.92833 22.807H4.22523C2.23394 22.807 0.621094 21.2937 0.621094 19.4253C0.621094 17.5569 2.23394 16.0436 4.22523 16.0436H6.92833C7.4257 16.0436 7.82937 15.6649 7.82937 15.1982V10.9712C7.82937 9.10278 9.44222 7.58949 11.4335 7.58949H15.9387C16.436 7.58949 16.8397 7.21074 16.8397 6.74408V4.20783C16.8397 2.33946 18.4526 0.826172 20.4438 0.826172C22.4351 0.826172 24.048 2.33946 24.048 4.20783V6.74408C24.048 7.21074 24.4516 7.58949 24.949 7.58949H31.2563C33.2475 7.58949 34.8604 9.10278 34.8604 10.9712V15.1982C34.8604 15.6649 34.4567 16.0436 33.9594 16.0436Z" fill="url(#paint0_linear_2415_3081)"/>
<defs>
<linearGradient id="paint0_linear_2415_3081" x1="17.7407" y1="0.826172" x2="17.7407" y2="31.2611" gradientUnits="userSpaceOnUse">
<stop stop-color="#F6CF55"/>
<stop offset="1" stop-color="#D00F0F"/>
</linearGradient>
</defs>
</svg>
